<!--?xml version="1.0" standalone="no"?-->
              <svg id="sw-js-blob-svg" viewBox="0 0 100 100" xmlns="http://www.w3.org/2000/svg" version="1.1">
                    <defs> 
                        <linearGradient id="sw-gradient" x1="0" x2="1" y1="1" y2="0">
                            <stop id="stop1" stop-color="rgba(149, 189, 255, 1)" offset="0%"></stop>
                            <stop id="stop2" stop-color="rgba(247, 200, 224, 1)" offset="100%"></stop>
                        </linearGradient>
                    </defs>
                <path fill="url(#sw-gradient)" d="M24.4,-34.5C31.3,-28.5,36.5,-21,39.1,-12.8C41.6,-4.6,41.5,4.4,39.1,13C36.8,21.6,32.2,29.9,25.3,34.8C18.4,39.8,9.2,41.5,-0.2,41.8C-9.7,42.2,-19.4,41.1,-27.2,36.4C-35,31.7,-41,23.5,-41.5,15.1C-41.9,6.8,-36.7,-1.7,-32.7,-9.6C-28.7,-17.4,-25.9,-24.5,-20.6,-31.1C-15.3,-37.6,-7.7,-43.6,0.5,-44.3C8.7,-45,17.4,-40.5,24.4,-34.5Z" width="100%" height="100%" transform="translate(50 50)" stroke-width="0" style="transition: all 0.3s ease 0s;" stroke="url(#sw-gradient)"></path>
              </svg>