<!--?xml version="1.0" standalone="no"?-->
              <svg id="sw-js-blob-svg" viewBox="0 0 100 100" xmlns="http://www.w3.org/2000/svg" version="1.1">
                    <defs> 
                        <linearGradient id="sw-gradient" x1="0" x2="1" y1="1" y2="0">
                            <stop id="stop1" stop-color="rgba(149, 189, 255, 1)" offset="0%"></stop>
                            <stop id="stop2" stop-color="rgba(247, 200, 224, 1)" offset="100%"></stop>
                        </linearGradient>
                    </defs>
                <path fill="url(#sw-gradient)" d="M18.1,-26.3C23.4,-21,27.8,-15.7,31.8,-9C35.8,-2.3,39.4,5.8,38.7,14.1C38.1,22.3,33.3,30.7,26.1,36.4C19,42.1,9.5,45,0.4,44.4C-8.6,43.8,-17.2,39.7,-23.3,33.7C-29.5,27.7,-33.2,19.8,-33.8,12.3C-34.5,4.7,-32.2,-2.5,-30.6,-10.6C-28.9,-18.8,-27.9,-27.9,-22.9,-33.3C-17.9,-38.8,-9,-40.6,-1.3,-38.8C6.3,-37.1,12.7,-31.6,18.1,-26.3Z" width="100%" height="100%" transform="translate(50 50)" stroke-width="0" style="transition: all 0.3s ease 0s;" stroke="url(#sw-gradient)"></path>
              </svg>